<svg viewBox="458 362 1385 1583" fill="none" xmlns="http://www.w3.org/2000/svg">
<path d="M1356.3 614.159L1357.33 616.475C1362.3 629.982 1508.04 857.243 1508.29 857.37C1510.82 858.669 1514.12 858.424 1516.92 858.519C1514.22 859.534 1513.02 859.754 1510.8 861.567C1516.54 871.928 1541.37 907.647 1549.04 916.54L1551.48 917.906C1550.43 930.061 1538.16 986.303 1533.27 996.807L1534.42 997.663C1533.77 1003.48 1526.65 1058.25 1525.91 1059.66C1526.91 1091.24 1515.33 1145.7 1514.12 1178.58C1514.2 1181.86 1514.82 1180.95 1513.41 1182.9C1527.78 1198.01 1569.71 1221.72 1588.7 1234.68C1598.94 1241.66 1613.69 1247.66 1622.32 1257.48L1623.6 1256.91C1617.7 1265.77 1603.06 1285.67 1599.71 1294.92C1597.81 1300.18 1596.05 1315.74 1594.7 1322.19L1579.24 1394.62L1524.94 1640.36C1516.06 1681.76 1507.73 1723.23 1498.36 1764.56C1496.47 1772.83 1495.08 1781.51 1492.85 1789.63C1488.03 1778.14 1467.44 1760.16 1459.61 1749.75C1455.46 1744.24 1456.05 1742.23 1449.37 1738.93L1448.44 1739.36C1448.43 1749.73 1446.33 1760.2 1445.72 1771.25C1445.09 1770.43 1444.91 1762.88 1444.82 1761.26C1441.75 1765.57 1439.51 1795.32 1438.65 1802.86C1435.44 1831.63 1431.96 1860.38 1428.22 1889.1C1427.65 1893.52 1426.55 1908.83 1424.85 1911.59C1417.8 1901.38 1401.77 1861.7 1395.91 1848.62L1354.56 1756.56C1340.27 1724.81 1324.17 1693.23 1310.92 1660.83C1307.95 1653.57 1304.13 1646.01 1300.31 1639.14C1295.85 1641.05 1291.16 1646.78 1287.62 1650.3C1253.83 1684.01 1220.83 1718.44 1187.5 1752.58C1183.07 1757.12 1178.32 1762.11 1173.45 1766.1C1157.14 1782.99 1140.56 1799.63 1123.69 1815.99C1120.83 1818.8 1105.59 1833.1 1104.15 1834.91C1105.3 1836.19 1120.05 1853.19 1120.34 1853.44C1131.04 1864.28 1141.49 1876.24 1151.88 1887.42C1161.2 1897.43 1171.6 1907.3 1180.66 1917.39C1182.97 1919.46 1182.34 1918.5 1183.52 1921.32L1182.08 1922.75C1174.33 1924.66 1159.16 1921.63 1150.47 1921.21L1105 1919.37L866.77 1908.25C836.275 1906.67 792.61 1906.74 763.414 1902.54C753.996 1894.52 741.399 1881.33 732.386 1872.34L681.588 1821.68C640.99 1781.24 600.252 1740.93 559.678 1700.47C556.224 1697.02 555.073 1695.95 553.788 1691.3C548.366 1671.69 544.679 1651.43 540.512 1631.49L523.09 1550.48L496.029 1422.63C490.33 1396.03 483.353 1366.54 478.513 1340.06C487.044 1346.31 545.72 1442.11 555.789 1457.62C571.255 1481.21 586.401 1505.02 601.225 1529.03C603.373 1532.48 622.711 1564.16 622.795 1564.23C623.343 1557.57 625.36 1557.42 626.813 1551.19C628.681 1543.18 627.231 1529.73 633.899 1524.47C634.038 1537.21 625.265 1557.39 628.317 1564.74L631.433 1561.83C631.512 1561.69 631.593 1561.57 631.673 1561.43C654.082 1514.56 681.118 1469.16 704.574 1422.9C750.382 1332.57 798.01 1243.2 844.754 1153.3C849.253 1144.65 856.027 1130.12 861.843 1122.73C867.452 1116.99 907.429 1097.62 917.175 1092.18L1164.04 956.928C1193.09 941.269 1223.15 925.983 1251.12 908.732C1258.18 904.378 1269.01 901.574 1277.11 895.635L1278.41 894.309C1278.84 891.607 1279.19 891.738 1277.38 889.164C1252.91 854.305 1225.77 820.936 1201.62 785.86L1201.12 784.407C1202.88 777.78 1228.89 752.25 1235.33 745.466L1315.35 660.85C1323 652.796 1354.85 621.676 1356.3 614.159Z" fill="#118A5C"/>
<path d="M631.433 1561.83C631.512 1561.69 631.593 1561.57 631.673 1561.43C654.082 1514.56 681.118 1469.16 704.574 1422.9C750.382 1332.57 798.01 1243.2 844.754 1153.3C849.253 1144.65 856.027 1130.12 861.843 1122.73C864.191 1130.07 888.326 1162.45 894.135 1171.31C927.129 1222.19 960.418 1272.9 994.002 1323.4C1005.94 1341.37 1039.1 1390.82 1052.32 1412.38C1052.24 1413.17 1052.17 1413.97 1052.09 1414.77L1053.82 1415.61C1053.21 1424.54 1056.41 1436.74 1057.46 1446.01C1059.64 1465.45 1062.24 1484.98 1064.51 1504.4L1095.85 1768.89C1097.01 1778.66 1105.06 1829.01 1104.15 1834.91C1105.3 1836.19 1120.05 1853.19 1120.34 1853.44C1131.04 1864.28 1141.49 1876.24 1151.88 1887.42C1161.2 1897.43 1171.6 1907.3 1180.66 1917.39C1182.97 1919.46 1182.34 1918.5 1183.52 1921.32L1182.08 1922.75C1174.33 1924.66 1159.16 1921.63 1150.47 1921.21L1105 1919.37L866.77 1908.25C836.275 1906.67 792.61 1906.74 763.414 1902.54C753.996 1894.52 741.399 1881.33 732.386 1872.34L681.588 1821.68C640.99 1781.24 600.252 1740.93 559.678 1700.47C556.224 1697.02 555.073 1695.95 553.788 1691.3C548.366 1671.69 544.679 1651.43 540.512 1631.49L523.09 1550.48L496.029 1422.63C490.33 1396.03 483.353 1366.54 478.513 1340.06C487.044 1346.31 545.72 1442.11 555.789 1457.62C571.255 1481.21 586.401 1505.02 601.225 1529.03C603.373 1532.48 622.711 1564.16 622.795 1564.23C623.343 1557.57 625.36 1557.42 626.813 1551.19C628.681 1543.18 627.231 1529.73 633.899 1524.47C634.038 1537.21 625.265 1557.39 628.317 1564.74L631.433 1561.83Z" fill="#1E9C60"/>
<path d="M478.513 1340.06C487.044 1346.31 545.72 1442.11 555.789 1457.62C571.255 1481.21 586.401 1505.02 601.225 1529.03C603.373 1532.48 622.711 1564.16 622.795 1564.23C623.343 1557.57 625.36 1557.42 626.813 1551.19C628.681 1543.18 627.231 1529.73 633.899 1524.47C634.038 1537.21 625.265 1557.39 628.317 1564.74C626.828 1567.03 626.332 1567.68 625.301 1570.17C627.897 1576.12 748.905 1648.7 765.448 1660.26C835.944 1709.56 914.908 1750.83 986.86 1798.08C1034.69 1829.28 1083.12 1859.56 1132.12 1888.89C1143.49 1895.71 1167.36 1912.22 1177.86 1916.35C1178.78 1916.72 1179.71 1917.05 1180.66 1917.39C1182.97 1919.46 1182.34 1918.5 1183.52 1921.32L1182.08 1922.75C1174.33 1924.66 1159.16 1921.63 1150.47 1921.21L1105 1919.37L866.77 1908.25C836.275 1906.67 792.61 1906.74 763.414 1902.54C753.996 1894.52 741.399 1881.33 732.386 1872.34L681.588 1821.68C640.99 1781.24 600.252 1740.93 559.678 1700.47C556.224 1697.02 555.073 1695.95 553.788 1691.3C548.366 1671.69 544.679 1651.43 540.512 1631.49L523.09 1550.48L496.029 1422.63C490.33 1396.03 483.353 1366.54 478.513 1340.06Z" fill="#118A5C"/>
<path d="M631.432 1561.83C631.512 1561.69 631.593 1561.57 631.672 1561.43C654.081 1514.56 681.117 1469.16 704.573 1422.9C750.382 1332.57 798.009 1243.2 844.753 1153.3C849.253 1144.65 856.027 1130.12 861.842 1122.73C864.19 1130.07 888.325 1162.45 894.135 1171.31C927.128 1222.19 960.418 1272.9 994.001 1323.4C1005.94 1341.37 1039.1 1390.82 1052.31 1412.38C1052.24 1413.17 1052.17 1413.97 1052.09 1414.77C1022.15 1424.27 992.372 1436.68 962.893 1447.5L764.283 1520.69C724.503 1535.3 684.887 1550.43 644.856 1564.35C639.928 1566.07 635.002 1565.94 630.184 1568.41C631.446 1565.61 632.116 1564.87 631.432 1561.83Z" fill="#3CC872"/>
<path d="M1224.91 1453.83C1225.48 1456.71 1225.91 1458.29 1226.78 1461.1L1228.29 1461C1243.12 1439.79 1268.27 1421.79 1286.95 1403.79C1311.69 1379.95 1508.83 1191.41 1512.53 1181.06C1513.33 1178.78 1512.02 1180.33 1514.12 1178.58C1514.2 1181.86 1514.82 1180.95 1513.41 1182.9C1527.78 1198.01 1569.71 1221.72 1588.7 1234.68C1598.94 1241.66 1613.69 1247.66 1622.32 1257.48L1623.6 1256.91C1617.7 1265.77 1603.06 1285.67 1599.71 1294.92C1597.81 1300.18 1596.05 1315.74 1594.7 1322.19L1579.24 1394.62L1524.94 1640.36C1516.06 1681.76 1507.73 1723.23 1498.36 1764.56C1496.47 1772.83 1495.08 1781.51 1492.85 1789.63C1488.03 1778.14 1467.44 1760.16 1459.61 1749.75C1455.46 1744.24 1456.05 1742.23 1449.37 1738.93L1448.44 1739.36C1448.43 1749.73 1446.33 1760.2 1445.72 1771.25C1445.09 1770.43 1444.91 1762.88 1444.82 1761.26C1441.75 1765.57 1439.51 1795.32 1438.65 1802.86C1435.44 1831.63 1431.96 1860.38 1428.22 1889.1C1427.65 1893.52 1426.55 1908.83 1424.85 1911.59C1417.8 1901.38 1401.77 1861.7 1395.91 1848.62L1354.56 1756.56C1340.27 1724.81 1324.17 1693.23 1310.92 1660.83C1307.95 1653.57 1304.13 1646.01 1300.31 1639.14C1298.73 1633.23 1285.72 1605.81 1282.43 1598.46L1238.07 1500.03C1233.28 1489.66 1226.48 1477.1 1223.09 1466.13C1222.4 1463.89 1224.33 1456.75 1224.91 1453.83Z" fill="#22AE64"/>
<path d="M1513.41 1182.9C1527.78 1198.01 1569.71 1221.72 1588.7 1234.68C1598.94 1241.66 1613.69 1247.66 1622.32 1257.48L1623.6 1256.91C1617.7 1265.77 1603.06 1285.67 1599.71 1294.92C1597.81 1300.18 1596.05 1315.74 1594.7 1322.19L1579.24 1394.62L1524.94 1640.36C1516.06 1681.76 1507.73 1723.23 1498.36 1764.56C1496.47 1772.83 1495.08 1781.51 1492.85 1789.63C1488.03 1778.14 1467.44 1760.16 1459.61 1749.75C1455.46 1744.24 1456.05 1742.23 1449.37 1738.93L1448.44 1739.36C1448.43 1749.73 1446.33 1760.2 1445.72 1771.25C1445.09 1770.43 1444.91 1762.88 1444.82 1761.27C1445.17 1750.59 1447.45 1735.7 1448.79 1724.69L1455.99 1664.88C1457.96 1648.43 1474 1502.6 1476.21 1498.8C1476.25 1488.81 1480.53 1457.24 1481.79 1446.03L1496.78 1321.75C1498.81 1305.09 1502.49 1281.11 1503.47 1264.76C1502.4 1257.29 1511.17 1192.28 1513.41 1182.9Z" fill="#0A7054"/>
<path d="M1503.47 1264.76C1507.2 1279.94 1499.58 1288.46 1503.55 1300.75C1503.59 1300.71 1506.44 1280.53 1506.9 1278.12L1507.87 1278.31C1509.57 1287.56 1504.37 1313.88 1503.74 1324.15C1503.07 1335.1 1504.72 1343.29 1500.78 1353.69C1496.92 1363.92 1497.25 1378.22 1496.1 1389.14C1495.98 1390.66 1498.82 1396.94 1499.49 1398.43L1499.17 1400.53L1497.82 1399.85C1497.32 1398.23 1493.29 1389.48 1493.35 1390.08C1493.02 1386.22 1495.59 1381.79 1493.75 1377.58C1486.91 1384.64 1494.65 1401.28 1496.52 1409.59C1498.83 1419.92 1493.99 1440.32 1487.72 1448.59L1486.62 1448.08C1486.9 1443.12 1487.23 1438.89 1486.99 1433.91C1484.47 1436.72 1477.83 1501.47 1477.04 1510.19C1476.07 1505.82 1476.25 1503.32 1476.21 1498.8C1476.25 1488.81 1480.53 1457.24 1481.79 1446.03L1496.78 1321.75C1498.81 1305.09 1502.49 1281.11 1503.47 1264.76Z" fill="#0D4938"/>
<path d="M1315.47 940.582C1314.39 931.168 1283.38 903.208 1285.45 896.945C1298.39 900.033 1332.36 915.114 1346.08 920.548L1470.51 970.9C1490.76 979.227 1512.96 989.241 1533.27 996.807L1534.42 997.663C1533.77 1003.48 1526.65 1058.25 1525.91 1059.66C1526.91 1091.24 1515.33 1145.7 1514.12 1178.58C1512.02 1180.33 1513.33 1178.78 1512.53 1181.06C1508.83 1191.41 1311.69 1379.95 1286.95 1403.79C1268.27 1421.79 1243.12 1439.79 1228.29 1461L1226.78 1461.1C1225.91 1458.29 1225.48 1456.71 1224.91 1453.83C1223.17 1444.53 1231.84 1376.91 1233.14 1363.35L1263.82 1064.79C1266.64 1039.68 1271.13 1012.2 1273.55 987.016C1274.49 977.215 1280.83 904.028 1282.98 900.264C1285.66 905.278 1311.9 937.954 1315.47 940.582Z" fill="#25A965"/>
<path d="M1315.47 940.582C1314.39 931.168 1283.38 903.208 1285.45 896.945C1298.39 900.033 1332.36 915.114 1346.08 920.548L1470.5 970.9C1490.76 979.227 1512.96 989.241 1533.27 996.807L1534.42 997.663C1533.77 1003.48 1526.65 1058.25 1525.91 1059.66C1521.93 1050.32 1530.48 1024.11 1529.14 1012.97C1528.37 1006.45 1499.72 1006.14 1493.4 1000.6C1486.43 994.462 1465.01 993.801 1454.92 991.21C1446.62 989.077 1445.89 988.024 1438.09 983.571C1421.75 984.238 1395.76 967.594 1386.17 968.506C1368.05 970.233 1343.34 950.926 1330.79 951.866C1328.56 957.409 1355.71 980.648 1357.25 991.095C1352.41 989.499 1317.79 946.396 1315.47 940.582Z" fill="#167549"/>
<path d="M1277.11 895.635C1276.75 901.534 1274.82 906.109 1272.56 911.504C1222.49 1031.17 1169.53 1149.83 1118.14 1268.91L1077.11 1364.85C1074.47 1371.04 1056.55 1411.92 1053.82 1415.61L1052.09 1414.77C1052.17 1413.97 1052.24 1413.17 1052.32 1412.38C1039.1 1390.82 1005.94 1341.37 994.002 1323.4C960.418 1272.9 927.129 1222.19 894.135 1171.31C888.326 1162.45 864.191 1130.07 861.843 1122.73C867.453 1116.99 907.429 1097.62 917.175 1092.18L1164.04 956.928C1193.09 941.268 1223.15 925.983 1251.12 908.732C1258.18 904.378 1269.01 901.574 1277.11 895.635Z" fill="#37C26F"/>
<path d="M1356.3 614.159L1357.33 616.475C1362.3 629.982 1508.04 857.243 1508.29 857.37C1510.82 858.669 1514.12 858.424 1516.92 858.519C1514.22 859.534 1513.02 859.754 1510.8 861.567C1516.54 871.928 1541.37 907.647 1549.04 916.54C1547.74 917.474 1547.31 918.191 1545.55 917.611C1519.02 908.883 1492.01 898.089 1466.09 887.921L1265.64 809.32C1255.91 805.531 1208.9 786.401 1201.62 785.86L1201.12 784.407C1202.88 777.78 1228.89 752.25 1235.33 745.466L1315.34 660.85C1323 652.796 1354.85 621.676 1356.3 614.159Z" fill="#26B666"/>
<path d="M1779.79 384.177L1782.06 382.192L1783.72 382.862C1786.56 389.78 1789.9 432.055 1791.07 443.539L1806.66 601.612L1817.58 711.573C1819.18 727.651 1822.85 753.578 1822.61 768.581C1822.32 769.486 1821.75 771.733 1821.24 772.347C1804.24 779.187 1764.51 802.522 1746.38 812.598C1697.26 840.273 1647.97 867.647 1598.52 894.717C1592.6 897.96 1564.38 913.577 1556.27 917.442C1555.51 917.18 1554.77 916.918 1554.02 916.658L1551.48 917.906L1549.04 916.54C1541.37 907.647 1516.54 871.929 1510.8 861.567C1513.02 859.754 1514.22 859.534 1516.92 858.519C1514.12 858.424 1510.82 858.669 1508.29 857.37C1508.04 857.243 1362.3 629.982 1357.33 616.475C1377.35 597.958 1396.79 578.609 1416.55 559.817C1421.19 555.408 1426.44 549.778 1431.87 546.534C1436.18 546.447 1438.27 546.886 1441.97 544.363C1451.46 543.399 1465.51 544.171 1475.72 543.503C1500.02 541.916 1524.82 540.915 1549.19 541.378C1557.52 536.308 1575.4 543 1582.49 537.695C1629.42 502.563 1674.8 465.022 1721.51 429.525C1740.81 414.861 1759.89 397.76 1779.79 384.177Z" fill="#3FCD79"/>
<path d="M1779.79 384.177L1782.06 382.192L1783.72 382.862C1786.56 389.78 1789.9 432.055 1791.07 443.539L1806.66 601.612L1817.58 711.573C1819.18 727.651 1822.85 753.578 1822.61 768.581C1814.33 757.531 1791.24 734.375 1780.97 723.525L1704.09 641.771C1694.35 631.409 1682.39 619.354 1673.01 608.371C1670.87 605.859 1673.51 600.79 1674.76 597.68C1671.81 600.039 1670.47 601.768 1667.05 601.915C1662.67 599.475 1658.37 596.582 1654.3 593.652C1630.65 576.611 1606.24 560.032 1583.35 541.988C1573.16 542.047 1559.01 542.546 1549.19 541.378C1557.52 536.308 1575.4 543 1582.49 537.695C1629.42 502.563 1674.8 465.022 1721.51 429.525C1740.81 414.861 1759.89 397.76 1779.79 384.177Z" fill="#097758"/>
<path d="M1779.79 384.177L1781.67 386.061C1777.41 399.409 1769.1 411.359 1762.62 424.289C1746.95 456.204 1730.99 487.975 1714.74 519.601L1687.33 573.914C1684.8 578.871 1677.28 594.409 1674.76 597.68C1671.81 600.039 1670.47 601.768 1667.05 601.915C1662.67 599.475 1658.37 596.582 1654.3 593.653C1630.65 576.611 1606.24 560.032 1583.35 541.988C1573.16 542.047 1559.01 542.546 1549.19 541.378C1557.52 536.308 1575.4 543 1582.49 537.695C1629.42 502.563 1674.8 465.022 1721.51 429.525C1740.81 414.861 1759.89 397.76 1779.79 384.177Z" fill="#25A965"/>
<path d="M1667.04 601.915C1670.47 601.768 1671.81 600.038 1674.76 597.68C1673.51 600.79 1670.86 605.858 1673.01 608.371C1682.39 619.354 1694.35 631.409 1704.09 641.771L1780.97 723.525C1791.24 734.375 1814.33 757.531 1822.61 768.581C1822.32 769.486 1821.74 771.733 1821.24 772.347C1804.24 779.187 1764.51 802.522 1746.38 812.598C1697.26 840.273 1647.97 867.647 1598.52 894.717C1592.6 897.96 1564.38 913.577 1556.26 917.442C1555.51 917.18 1554.77 916.918 1554.02 916.657L1551.48 917.906L1549.04 916.539C1541.37 907.647 1516.54 871.928 1510.79 861.567C1513.02 859.754 1514.22 859.534 1516.92 858.519C1533.42 858.804 1549.73 856.205 1566.99 855.905C1572.01 852.628 1576.22 855.118 1583.18 852.691C1591.18 836.327 1669.75 612.455 1669.91 607.22C1670.01 604.256 1669.03 603.732 1667.04 601.915Z" fill="#21AF63"/>
<path d="M1566.99 855.905C1572.05 855.887 1577.11 855.781 1582.16 855.589C1577.69 866.219 1559.56 908.193 1554.02 916.658L1551.48 917.906L1549.04 916.539C1541.37 907.647 1516.54 871.928 1510.79 861.567C1513.02 859.754 1514.22 859.534 1516.92 858.519C1533.42 858.804 1549.73 856.205 1566.99 855.905Z" fill="#0A7054"/>
<path d="M593.577 1021.28C590.926 1017.45 578.688 983.453 576.023 976.362L528.615 850.406C522.892 834.823 517.899 818.908 511.163 803.585C509.031 798.732 508.804 794.299 506.177 789.373C510.368 787.942 518.956 796.019 526.213 800.294C573.82 828.368 621.733 856.652 668.656 885.8C668.565 885.743 671.229 888.553 671.485 888.82C672.051 898.034 680.081 926.439 682.846 937.634C691.899 974.875 701.269 1012.04 710.955 1049.12C714.26 1061.37 721.685 1083.78 721.718 1095.77C721.295 1104.08 717.307 1119.82 715.431 1128.85L702.296 1192.89L656.333 1418.98L641.969 1489.18C639.902 1499.36 636.372 1514.26 635.164 1524.04L633.898 1524.47C627.23 1529.73 628.681 1543.18 626.812 1551.19C625.36 1557.42 623.343 1557.57 622.795 1564.23C622.71 1564.16 603.373 1532.48 601.225 1529.03C586.401 1505.02 571.255 1481.21 555.789 1457.62C545.72 1442.11 487.043 1346.31 478.512 1340.06C478.409 1332.89 478.202 1330.4 482.039 1324.36C484.22 1316.3 494.918 1296.48 496.587 1290.25C503.799 1263.3 602.364 1058.29 601.386 1043.76C599.861 1038.31 593.751 1024.3 593.577 1021.28Z" fill="#40CE78"/>
<path d="M721.718 1095.77C721.295 1104.08 717.307 1119.82 715.431 1128.85L702.296 1192.89L656.333 1418.98L641.969 1489.18C639.902 1499.36 636.372 1514.26 635.164 1524.04L633.898 1524.47C627.23 1529.73 628.681 1543.18 626.812 1551.19C625.36 1557.42 623.343 1557.57 622.795 1564.23C622.71 1564.16 603.373 1532.48 601.225 1529.03C586.401 1505.02 571.255 1481.21 555.789 1457.62C545.72 1442.11 487.043 1346.31 478.512 1340.06C478.409 1332.89 478.202 1330.4 482.039 1324.36L483.418 1327.15C488.703 1325.12 521.378 1290.91 527.931 1284.65L721.718 1095.77Z" fill="#25A965"/>
<path d="M593.578 1021.28C590.926 1017.45 578.688 983.453 576.023 976.362L528.616 850.406C522.893 834.823 517.9 818.908 511.164 803.585C509.032 798.732 508.805 794.299 506.178 789.373C510.369 787.942 518.957 796.019 526.214 800.294C573.82 828.368 621.733 856.652 668.657 885.8C668.566 885.743 671.23 888.553 671.486 888.82L668.726 888.524C662.521 898.939 628.03 985.089 625.461 986.565L624.187 984.648C615.737 992.556 611.884 1013.71 595.335 1021.63L593.578 1021.28Z" fill="#33B469"/>
<path d="M593.577 1021.28L595.334 1021.63C611.884 1013.71 615.737 992.556 624.187 984.648L625.461 986.565C620.676 1002.89 607.991 1027.21 601.386 1043.76C599.861 1038.31 593.751 1024.3 593.577 1021.28Z" fill="#118A5C"/>
<path d="M1554.02 916.657C1554.77 916.918 1555.51 917.18 1556.26 917.442C1564.38 913.577 1592.6 897.959 1598.52 894.717C1647.97 867.647 1697.26 840.273 1746.38 812.598C1764.51 802.522 1804.24 779.187 1821.24 772.347L1757.79 850.165C1744.72 866.117 1728.68 884.938 1717.1 901.369C1712.91 907.313 1708.26 937.162 1704.94 948.192C1698.95 968.032 1693.23 993.031 1688.06 1013.42L1644.19 1181.89L1631.07 1233.84C1629.6 1239.52 1627.08 1253.1 1623.6 1256.91L1622.32 1257.48C1613.69 1247.66 1598.94 1241.66 1588.7 1234.68C1569.71 1221.72 1527.78 1198.01 1513.41 1182.9C1514.82 1180.95 1514.2 1181.86 1514.12 1178.58C1515.33 1145.7 1526.91 1091.24 1525.91 1059.66C1526.65 1058.25 1533.77 1003.48 1534.42 997.663L1533.27 996.807C1538.16 986.303 1550.43 930.061 1551.48 917.906L1554.02 916.657Z" fill="#0A7054"/>
<path d="M1201.12 784.407C1197.42 776.657 1202.42 725.808 1203.21 714.035C1205.99 674.339 1208.46 634.623 1210.63 594.888L1219.25 443.901C1220.66 422.644 1220.34 409.105 1222.74 387.389L1223.71 387.814C1236.9 395.599 1265.9 418.583 1279.53 428.849L1388.02 510.892C1401.57 521.2 1416.8 532.878 1430.2 543.596C1430.96 544.196 1440.24 544.383 1441.97 544.363C1438.27 546.886 1436.18 546.447 1431.87 546.534C1426.44 549.778 1421.19 555.408 1416.55 559.817C1396.79 578.609 1377.35 597.958 1357.33 616.475L1356.3 614.159C1354.85 621.676 1323 652.796 1315.35 660.85L1235.33 745.466C1228.89 752.25 1202.88 777.78 1201.12 784.407Z" fill="#0A7054"/>
<path d="M1223.71 387.814C1236.9 395.599 1265.9 418.583 1279.53 428.849L1388.02 510.892C1401.57 521.2 1416.8 532.878 1430.2 543.595C1430.96 544.195 1440.24 544.383 1441.97 544.363C1438.27 546.886 1436.18 546.447 1431.87 546.534C1426.44 549.778 1421.19 555.408 1416.55 559.817C1396.79 578.609 1377.35 597.958 1357.33 616.475L1356.3 614.159C1346.55 603.918 1230.6 405.578 1223.71 387.814Z" fill="#25A965"/>
<path d="M1444.82 1761.27C1444.91 1762.88 1445.09 1770.43 1445.72 1771.25C1446.33 1760.2 1448.43 1749.73 1448.44 1739.36L1449.37 1738.93C1456.05 1742.23 1455.46 1744.24 1459.61 1749.75C1467.44 1760.16 1488.03 1778.14 1492.85 1789.63C1503.69 1808.52 1583.24 1907.71 1584.41 1913.87C1579.66 1915.98 1426.74 1914.7 1425.04 1913.57L1424.84 1911.59C1426.55 1908.83 1427.65 1893.52 1428.22 1889.1C1431.96 1860.38 1435.44 1831.63 1438.65 1802.86C1439.51 1795.32 1441.75 1765.57 1444.82 1761.27Z" fill="#25A965"/>
<path d="M1104.15 1834.91C1105.59 1833.1 1120.83 1818.8 1123.69 1815.99C1140.56 1799.63 1157.14 1782.99 1173.45 1766.1C1174.12 1767.52 1280.53 1848.61 1282.03 1849.09L1282.64 1850.35C1276.18 1852.27 1253.6 1851.63 1245.38 1851.61L1158.88 1851.47C1151.6 1851.46 1125.41 1850.36 1120.34 1853.44C1120.05 1853.19 1105.3 1836.19 1104.15 1834.91Z" fill="#085E4A"/>
</svg>
